<svg width="100" height="100" viewBox="0 0 100 100" fill="none" xmlns="http://www.w3.org/2000/svg">
<path d="M37.2969 80.5312L25.4844 68.75L49.6406 44.5469L37.5 36.8281C37.3334 36.7181 37.2024 36.562 37.1228 36.379C37.0432 36.1959 37.0184 35.9937 37.0515 35.7968C37.0846 35.5999 37.1741 35.4169 37.3092 35.2699C37.4443 35.1229 37.6191 35.0183 37.8125 34.9687L78.4375 25.4531C78.605 25.412 78.7802 25.4142 78.9466 25.4595C79.1129 25.5048 79.2651 25.5918 79.3886 25.7121C79.512 25.8325 79.6029 25.9823 79.6524 26.1475C79.702 26.3127 79.7087 26.4878 79.6719 26.6562L70.9219 68.0625C70.8792 68.2621 70.7783 68.4446 70.6319 68.5868C70.4855 68.7291 70.3001 68.8246 70.0993 68.8614C69.8986 68.8982 69.6914 68.8746 69.504 68.7936C69.3166 68.7126 69.1576 68.5778 69.0469 68.4062L61.375 56.375L37.2969 80.5312Z" stroke="#FB4C4C" stroke-width="5"/>
</svg>
