<svg width="40" height="40" viewBox="0 0 40 40" fill="none" xmlns="http://www.w3.org/2000/svg">
<path d="M22.9125 34.0313H5.525C5.11704 34.0297 4.72587 33.8687 4.43507 33.5826C4.14427 33.2964 3.97691 32.9079 3.96875 32.5V7.57505C3.96875 7.16231 4.13271 6.76647 4.42457 6.47461C4.71642 6.18276 5.11226 6.0188 5.525 6.0188H30.425C30.8377 6.0188 31.2336 6.18276 31.5254 6.47461C31.8173 6.76647 31.9812 7.16231 31.9812 7.57505V21.575" stroke="#FB4C4C" stroke-width="3"/>
<path d="M3.96875 12.8938H31.9812" stroke="#FB4C4C" stroke-width="3"/>
<path d="M10.2876 6.0188V2.8938" stroke="#FB4C4C" stroke-width="3"/>
<path d="M25.2625 6.0188V2.8938" stroke="#FB4C4C" stroke-width="3"/>
<path d="M28.2624 36.1687C32.553 36.1687 36.0312 32.6905 36.0312 28.4C36.0312 24.1094 32.553 20.6312 28.2624 20.6312C23.9718 20.6312 20.4937 24.1094 20.4937 28.4C20.4937 32.6905 23.9718 36.1687 28.2624 36.1687Z" stroke="#FB4C4C" stroke-width="3"/>
<path d="M28.2625 22.9375V28.6375L30.9812 30.725" stroke="#FB4C4C" stroke-width="3"/>
</svg>
