<svg width="40" height="40" viewBox="0 0 40 40" fill="none" xmlns="http://www.w3.org/2000/svg">
<path d="M6.94373 5.24999C6.72479 5.2571 6.5095 5.30807 6.3106 5.39987C6.11171 5.49168 5.93326 5.62246 5.78582 5.78448C5.63837 5.94649 5.52494 6.13644 5.45222 6.34308C5.37951 6.54972 5.34899 6.76885 5.36248 6.98749C5.58123 10.7375 6.61248 19.8875 11.55 25.5937C17.4625 32.4687 25.1625 34.8375 33.0625 34.4875C33.4859 34.4622 33.884 34.2771 34.1764 33.9697C34.4687 33.6623 34.6335 33.2554 34.6375 32.8312V26.825C34.6326 26.2646 34.4395 25.7221 34.0893 25.2846C33.739 24.8471 33.252 24.54 32.7062 24.4125L28.75 23.5375C28.2607 23.4332 27.7513 23.4781 27.2878 23.6664C26.8243 23.8547 26.4279 24.1777 26.15 24.5937L25.275 25.9187C25.1946 26.04 25.0745 26.1294 24.9354 26.1716C24.7962 26.2138 24.6466 26.2062 24.5125 26.15C22.5 25.2812 14.4812 21.5312 13.6 15.2062C13.5827 15.0841 13.602 14.9596 13.6554 14.8483C13.7088 14.7371 13.7939 14.6442 13.9 14.5812L15.4875 13.6125C15.9229 13.3426 16.2649 12.9455 16.4673 12.4749C16.6696 12.0043 16.7225 11.4829 16.6187 10.9812L15.75 6.95624C15.623 6.39229 15.3045 5.88977 14.8486 5.53424C14.3928 5.1787 13.8279 4.99212 13.25 5.00624L6.94373 5.24999Z" stroke="#FB4C4C" stroke-width="3"/>
</svg>
