<svg width="100" height="100" viewBox="0 0 100 100" fill="none" xmlns="http://www.w3.org/2000/svg">
<path d="M57.2812 85.0781H13.8125C12.7926 85.0742 11.8147 84.6716 11.0877 83.9563C10.3607 83.241 9.94227 82.2697 9.92188 81.25V18.9375C9.92188 17.9056 10.3318 16.916 11.0614 16.1864C11.791 15.4568 12.7806 15.0469 13.8125 15.0469H76.0625C77.0944 15.0469 78.084 15.4568 78.8136 16.1864C79.5432 16.916 79.9531 17.9056 79.9531 18.9375V53.9375" stroke="#FB4C4C" stroke-width="5"/>
<path d="M9.92188 32.2344H79.9531" stroke="#FB4C4C" stroke-width="5"/>
<path d="M25.7188 15.0469V7.23438" stroke="#FB4C4C" stroke-width="5"/>
<path d="M63.1562 15.0469V7.23438" stroke="#FB4C4C" stroke-width="5"/>
<path d="M70.6562 90.4219C81.3827 90.4219 90.0781 81.7264 90.0781 71C90.0781 60.2736 81.3827 51.5781 70.6562 51.5781C59.9298 51.5781 51.2344 60.2736 51.2344 71C51.2344 81.7264 59.9298 90.4219 70.6562 90.4219Z" stroke="#FB4C4C" stroke-width="5"/>
<path d="M70.6562 57.3438V71.5937L77.4531 76.8125" stroke="#FB4C4C" stroke-width="5"/>
</svg>
